<svg xmlns="http://www.w3.org/2000/svg" viewBox="0 0 294.43204128 294.43204128">
  <defs/>
  <path fill="#e86c1d" stroke="#ccc" stroke-linecap="round" stroke-linejoin="round" stroke-width="10" d="M99.8597651 131.2460174l-39.19573266 50.71737788a10 10 0 006.83772234 13.16227766H226.9302865a10 10 0 006.83772234-13.16227766l-39.19573266-50.71737787" class="liquid"/>
  <path fill="none" stroke="#ccc" stroke-linecap="round" stroke-linejoin="round" stroke-width="10" d="M126.03701548 10.77110765v87.17728264l-65.37298304 84.01500499a10 10 0 006.83772234 13.16227766H226.9302865a10 10 0 006.83772234-13.16227766L168.3950258 97.94839029V10.77110765M105.45595372 10.77110765h83.52013384"/>
  <g fill="none" stroke="#ccc" stroke-linecap="round" stroke-linejoin="round" stroke-width="10" transform="translate(0 205.12567294)">
    <path d="M10 10v68.5352607M67.35801032 57.35625554a21.17900516 21.17900516 0 00-42.35801032 0 21.17900516 21.17900516 0 0042.35801032 0V78.5352607M82.35801032 10v68.5352607"/>
    <circle cx="103.53701548" cy="57.35625554" r="21.17900516"/>
    <path d="M139.71602064 78.5352607V46.76675296a10.58950258 10.58950258 0 0121.17900516 0V78.5352607M160.8950258 78.5352607V46.76675296a10.58950258 10.58950258 0 0121.17900516 0V78.5352607M197.07403096 10v68.5352607M212.07403096 78.5352607v.01"/>
    <circle cx="248.25303612" cy="57.35625554" r="21.17900516"/>
    <path d="M269.43204128 57.35625554V78.5352607M284.43204128 36.17725038V78.5352607M284.43204128 20.58950258v.01"/>
  </g>
</svg>
